<svg xmlns="http://www.w3.org/2000/svg" width="204" height="142">
  <defs>
    <linearGradient id="a" x1="63.86%" x2="23.789%" y1="-36.397%" y2="100%">
      <stop offset="0%" stop-color="#76E1FF"/>
      <stop offset="100%" stop-color="#637BFF" stop-opacity="0"/>
    </linearGradient>
    <linearGradient id="b" x1="50%" x2="50%" y1="0%" y2="97.483%">
      <stop offset="0%" stop-color="#21C8F6"/>
      <stop offset="100%" stop-color="#637BFF"/>
    </linearGradient>
  </defs>
  <g fill="none" fill-rule="evenodd" style="mix-blend-mode:luminosity">
    <path stroke="url(#a)" stroke-width="3.2" d="M172.387 80.504l-59.514-68.68-88.3 60.057L.886 256.78" transform="scale(-1 1) rotate(8 15.578 -1417.605)"/>
    <path fill="url(#b)" d="M169.2 68.728h3.36a3.36 3.36 0 0 1 3.36 3.36v15.68a3.36 3.36 0 0 1-3.36 3.36h-3.36a3.36 3.36 0 0 1-3.36-3.36v-15.68a3.36 3.36 0 0 1 3.36-3.36z" transform="rotate(-62 110.822 193.15)"/>
    <path fill="url(#b)" d="M3.36 0h25.2a3.36 3.36 0 0 1 3.36 3.36v48.72a3.36 3.36 0 0 1-3.36 3.36H3.36A3.36 3.36 0 0 1 0 52.08V3.36A3.36 3.36 0 0 1 3.36 0z" transform="rotate(-64 83.761 53.631)"/>
    <text fill="#FFF" font-family="OpenSans-Bold, Open Sans" font-size="28.4" font-weight="bold" opacity=".501" transform="rotate(116 -.256 70.047)">
      <tspan x="3.36" y="38.68">%</tspan>
    </text>
    <g transform="scale(-1 1) rotate(8 -40.816 -686.296)">
      <ellipse cx="11.404" cy="11.427" fill="url(#b)" rx="11.404" ry="11.427"/>
      <path fill="#FFF" fill-opacity=".2" d="M4.344 19.59A10.874 10.874 0 0 1 0 10.883C0 4.873 4.863 0 10.86 0c3.554 0 6.709 1.71 8.69 4.353a10.799 10.799 0 0 0-6.517-2.176c-5.998 0-10.86 4.872-10.86 10.882 0 2.45.807 4.712 2.17 6.53z"/>
    </g>
    <g transform="scale(-1 1) rotate(8 -466.016 -1314.76)">
      <ellipse cx="6.336" cy="6.348" fill="url(#b)" rx="6.336" ry="6.348"/>
      <path fill="#FFF" fill-opacity=".2" d="M2.252 10.158A5.638 5.638 0 0 1 0 5.643 5.637 5.637 0 0 1 5.632 0a5.62 5.62 0 0 1 4.505 2.257 5.6 5.6 0 0 0-3.38-1.128 5.637 5.637 0 0 0-5.63 5.643c0 1.27.418 2.442 1.125 3.386z"/>
    </g>
  </g>
</svg>
