<svg xmlns="http://www.w3.org/2000/svg" xmlns:xlink="http://www.w3.org/1999/xlink" width="56" height="94">
  <defs>
    <path id="a" d="M0 0h98v99H0z"/>
    <linearGradient id="c" x1="63.86%" x2="23.789%" y1="-36.397%" y2="100%">
      <stop offset="0%" stop-color="#76E1FF"/>
      <stop offset="100%" stop-color="#637BFF" stop-opacity="0"/>
    </linearGradient>
    <linearGradient id="f" x1="50%" x2="50%" y1="0%" y2="97.483%">
      <stop offset="0%" stop-color="#21C8F6"/>
      <stop offset="100%" stop-color="#637BFF"/>
    </linearGradient>
    <ellipse id="e" cx="63.749" cy="13.599" rx="7.802" ry="7.816"/>
    <filter id="d" width="189.7%" height="189.6%" x="-44.9%" y="-32%" filterUnits="objectBoundingBox">
      <feOffset dy="2" in="SourceAlpha" result="shadowOffsetOuter1"/>
      <feGaussianBlur in="shadowOffsetOuter1" result="shadowBlurOuter1" stdDeviation="2"/>
      <feColorMatrix in="shadowBlurOuter1" values="0 0 0 0 0.666666667 0 0 0 0 0.639215686 0 0 0 0 0.639215686 0 0 0 0.3 0"/>
    </filter>
    <path id="h" d="M52.581.864l.046-.002a4.435 4.435 0 0 1 4.437 4.436l-.008 15.695a4.435 4.435 0 0 1-4.434 4.435l-.046.004a4.435 4.435 0 0 1-4.437-4.437L48.147 5.3A4.435 4.435 0 0 1 52.581.866z"/>
    <filter id="g" width="256.9%" height="156.9%" x="-78.4%" y="-20.3%" filterUnits="objectBoundingBox">
      <feOffset dy="2" in="SourceAlpha" result="shadowOffsetOuter1"/>
      <feGaussianBlur in="shadowOffsetOuter1" result="shadowBlurOuter1" stdDeviation="2"/>
      <feColorMatrix in="shadowBlurOuter1" values="0 0 0 0 0.666666667 0 0 0 0 0.639215686 0 0 0 0 0.639215686 0 0 0 0.3 0"/>
    </filter>
  </defs>
  <g fill="none" fill-rule="evenodd" transform="translate(-42 -5)">
    <mask id="b" fill="#fff">
      <use xlink:href="#a"/>
    </mask>
    <g mask="url(#b)" style="mix-blend-mode:luminosity">
      <path stroke="url(#c)" stroke-width="3.2" d="M57.041 88.032l7.879-75.755-58.289-1.475" transform="scale(-1 1) rotate(41 -53.761 -119.377)"/>
      <g transform="scale(-1 1) rotate(41 -53.761 -119.377)">
        <use fill="#000" filter="url(#d)" xlink:href="#e"/>
        <use fill="url(#f)" xlink:href="#e"/>
      </g>
      <g transform="translate(40.784 6.19)">
        <use fill="#000" filter="url(#g)" xlink:href="#h"/>
        <use fill="url(#f)" xlink:href="#h"/>
      </g>
    </g>
  </g>
</svg>
