<svg xmlns="http://www.w3.org/2000/svg" xmlns:xlink="http://www.w3.org/1999/xlink" width="202" height="169" viewBox="0 0 202 169">
    <defs>
        <path id="a" d="M0 .592h221v168H0z"/>
    </defs>
    <g fill="none" fill-rule="evenodd" transform="translate(-19)">
        <mask id="b" fill="#fff">
            <use xlink:href="#a"/>
        </mask>
        <g mask="url(#b)" opacity=".265">
            <path fill="#496A9F" d="M131.267 104.357l34.518 34.518 31.47-124.626-124.627 31.47L83.39 56.48c6.396 6.396 6.396 16.765 0 23.16-6.395 6.396-16.765 6.396-23.16 0L29.93 49.344a17.215 17.215 0 0 1-3.951-4.561c-3.919-6.317-3.136-14.72 2.347-20.204a16.304 16.304 0 0 1 9.227-4.628l177.833-44.905c6.123-1.546 12.327.387 16.495 4.577 4.19 4.167 6.122 10.37 4.576 16.494l-45.322 179.485c-2.207 8.738-11.079 14.033-19.816 11.826a17.208 17.208 0 0 1-9.16-5.855l-54.054-54.054-20.508 20.508c-6.61 6.611-17.33 6.611-23.94 0-6.611-6.611-6.611-17.33 0-23.94l64.176-64.177c6.611-6.611 17.33-6.611 23.94 0 6.612 6.61 6.612 17.33 0 23.94l-20.507 20.508zM55.67 179.953l-9.336 9.336c-6.611 6.611-17.33 6.611-23.94 0-6.612-6.61-6.612-17.33 0-23.94l9.335-9.336c6.611-6.612 17.33-6.612 23.941 0 6.611 6.61 6.611 17.33 0 23.94z"/>
        </g>
    </g>
</svg>
