<svg id="Layer_1" xmlns="http://www.w3.org/2000/svg" xmlns:xlink="http://www.w3.org/1999/xlink" viewBox="0 0 90 45" enable-background="new 0 0 90 45"><g><path fill="#fff" d="M8.1 5.6c.2.0.3.1.4.2.1.1.2.3.2.5v12.2c0 3.4-1.7 5.2-5 5.2H2.3c-.1.0-.3-.1-.4-.2-.1-.1-.2-.2-.2-.3l-.8-2.4c-.1-.3-.1-.5.1-.6.1-.2.3-.3.6-.3l1-.2c.5-.1.8-.3 1-.5.2-.2.3-.6.3-1.1V6.3c0-.2.1-.4.2-.5.1-.1.3-.2.4-.2H8.1zM4.5 1.1c.4-.4 1-.6 1.8-.6.8.0 1.4.2 1.8.6.4.4.7.9.7 1.6.0.7-.2 1.2-.7 1.6C7.7 4.8 7.1 5 6.3 5 5.5 5 4.9 4.8 4.5 4.4 4 4 3.8 3.4 3.8 2.8 3.8 2.1 4 1.5 4.5 1.1z"/><path fill="#fff" d="M23.8 18.7c0 .2-.1.4-.2.5-.1.1-.3.2-.5.2H20c-.1.0-.3.0-.4-.1-.1-.1-.2-.2-.2-.3l-.4-.7c-.7.4-1.4.8-2.1 1-.8.3-1.6.4-2.4.4-1.5.0-2.6-.4-3.4-1.2-.7-.8-1.1-2-1.1-3.5V6.8c0-.2.1-.4.2-.5.1-.1.3-.2.5-.2h4c.2.0.4.1.5.2.1.1.2.3.2.5V14c0 1 .3 1.5.9 1.5.2.0.3.0.5-.1.2.0.4-.1.7-.2h0c.2-.1.4-.2.6-.2.2-.1.3-.1.5-.2v-8c0-.2.1-.4.2-.5.1-.1.3-.2.5-.2h4c.4.0.7.3.7.7L23.8 18.7z"/><path fill="#fff" d="M34.6 18.6c-1 .7-2.3 1.1-4.1 1.1-.9.0-1.8-.1-2.7-.2-.8-.1-1.5-.3-2.3-.5-.1.0-.2-.1-.3-.2-.1-.1-.1-.2-.2-.3l-.3-2.8c0-.3.0-.5.2-.6.2-.2.4-.2.7.0.1.1.4.2.6.3.3.1.7.3 1.1.4.8.3 1.8.5 2.7.5.2.0.5.0.7-.1.2-.1.3-.1.3-.3.0-.2-.2-.4-.6-.6-.4-.2-1-.4-1.7-.6v0c-.6-.2-1.3-.6-2.3-1.2-1-.7-1.6-1.7-1.6-3.2.0-.7.1-1.4.4-1.9.3-.6.7-1 1.3-1.4.5-.4 1.1-.6 1.7-.8.7-.2 1.4-.3 2.2-.3.4.0.8.0 1.1.1C32.1 5.9 32.4 6 32.8 6c.3.1.6.2 1 .3.3.1.5.2.8.3.1.0.2.1.3.3.1.1.1.3.1.4V10c0 .3-.1.5-.3.6-.2.1-.5.1-.7-.1-.1.0-.2-.1-.4-.2-.2-.1-.5-.3-.8-.4-.7-.3-1.3-.5-1.9-.5-.2.0-.4.0-.6.1-.1.1-.2.2-.2.3.0.2.2.4.6.6.4.2 1.1.5 2 .8 1.1.4 2 1 2.6 1.6.6.7.9 1.5.9 2.5C36.1 16.8 35.6 17.9 34.6 18.6z"/><path fill="#fff" d="M43.6 15.5c.1.1.2.2.4.2.4.0.7.0 1-.2.3-.1.5-.2.7-.3.2-.1.4-.1.6.0.2.1.3.4.3.6v2.8c0 .1.0.3-.1.4-.1.1-.2.2-.3.2-.2.1-.4.2-.6.2-.2.1-.5.1-.8.2-.4.1-.7.1-1 .2-.3.0-.6.1-.9.1-1.7.0-2.9-.3-3.6-.9-.7-.6-1.1-1.7-1.1-3.2V10h-1.9c-.2.0-.3-.1-.5-.2-.1-.1-.2-.3-.2-.5V6.8c0-.4.3-.7.7-.7h1.9V3.2c0-.2.1-.3.2-.5.1-.1.2-.2.4-.2l3.9-.7c.2-.1.4.0.6.2.2.1.2.3.2.5V6H46c.2.0.4.1.5.2.1.1.2.3.2.5v2.5c0 .2-.1.4-.2.5C46.4 9.9 46.2 10 46 10h-2.6v4.9C43.4 15.2 43.5 15.4 43.6 15.5z"/><path fill="#f15c66" d="M9.1 40.4c.1.1.2.2.4.2.4.0.7.0 1-.2.3-.1.5-.2.7-.3.2-.1.4-.1.6.0.2.1.3.4.3.6v2.8c0 .1.0.3-.1.4-.1.1-.2.2-.3.2-.2.1-.4.2-.6.2-.2.1-.5.1-.8.2-.4.1-.7.1-1 .2-.3.0-.6.1-.9.1-1.7.0-2.9-.3-3.6-.9-.7-.6-1.1-1.7-1.1-3.2v-5.9H1.8c-.2.0-.3-.1-.5-.2-.1-.1-.2-.3-.2-.5v-2.5c0-.4.3-.7.7-.7h1.9v-2.9c0-.2.1-.3.2-.5.1-.1.2-.2.4-.2l3.9-.7c.2-.1.4.0.6.2C8.9 27 9 27.2 8.9 27.4v3.5h2.6c.2.0.4.1.5.2.1.1.2.3.2.5v2.5c0 .2-.1.4-.2.5-.1.1-.3.2-.5.2H8.9v4.9C8.9 40 9 40.2 9.1 40.4z"/><path fill="#f15c66" d="M21.8 44.3c-.4.0-.7-.3-.7-.7v-7.4c0-.4-.1-.8-.2-1.1-.1-.3-.3-.4-.6-.4-.5.0-1.1.1-1.5.4h0c-.2.1-.3.1-.4.2L18 35.4v8.2c0 .4-.3.7-.7.7h-4c-.2.0-.4-.1-.5-.2-.1-.1-.2-.3-.2-.5V26.8c0-.2.1-.4.2-.5.1-.1.3-.2.5-.2h4c.4.0.7.3.7.7v4.6c.6-.4 1.2-.6 1.8-.8.7-.2 1.3-.3 2-.3 1.5.0 2.7.4 3.4 1.3.7.9 1.1 2.1 1.1 3.8v8.2c0 .4-.3.7-.7.7H21.8z"/><path fill="#f15c66" d="M39.7 43.4c-.3.2-.6.4-1 .5-.4.1-.8.3-1.2.4-.4.1-.9.2-1.3.2-.4.1-.9.1-1.3.1-2.3.0-4.1-.6-5.4-1.9-1.4-1.3-2-3-2-5.3.0-1.9.6-3.6 1.8-4.8 1.2-1.3 2.8-1.9 4.6-1.9s3.4.6 4.5 1.9c1.1 1.3 1.7 2.9 1.7 4.9v1c0 .2-.1.4-.2.5-.1.1-.3.2-.5.2h-6.6c.1.2.2.4.4.6.5.5 1.3.7 2.4.7.5.0 1.1-.1 1.6-.2.3-.1.5-.1.6-.2.1.0.2-.1.3-.1.2-.1.4-.1.5.0.2.1.3.2.4.4l.9 2.2L39.7 43.4zM32.7 36.1h2.4c-.1-.5-.2-1-.4-1.3s-.5-.5-.8-.5c-.4.0-.7.2-.9.6C32.8 35.4 32.7 35.8 32.7 36.1z"/><path fill="#f15c66" d="M58.7 44.3c-.2.0-.4-.1-.5-.2-.1-.1-.2-.3-.2-.5v-7.2c0-.4-.1-.8-.2-1.1-.1-.3-.3-.4-.5-.4-.2.0-.5.0-.7.1-.2.1-.5.2-.7.3-.2.1-.3.1-.5.2-.1.0-.2.1-.3.2v8c0 .2-.1.4-.2.5-.1.1-.3.2-.5.2h-4.1c-.2.0-.4-.1-.5-.2-.1-.1-.2-.3-.2-.5v-7.2c0-.4-.1-.8-.2-1.1-.1-.3-.3-.4-.5-.4-.5.0-1 .1-1.5.3h0c-.2.1-.3.1-.4.2-.1.1-.2.1-.3.2v7.9c0 .2-.1.4-.2.5-.1.1-.3.2-.5.2h-4.1c-.2.0-.4-.1-.5-.2-.1-.1-.2-.3-.2-.5v-12c0-.2.1-.4.2-.5.1-.1.3-.2.5-.2h2.9c.1.0.2.0.3.1.1.0.2.1.3.2l.6.9c.7-.5 1.4-.8 2.2-1.1.8-.3 1.6-.4 2.5-.4.8.0 1.4.2 2 .5.5.3 1 .7 1.4 1.2.2-.1.4-.3.7-.4.2-.1.5-.3.8-.4.5-.3 1.1-.5 1.6-.6.6-.1 1.1-.2 1.7-.2 3.1.0 4.7 1.7 4.7 5v7.9c0 .2-.1.4-.2.5-.1.1-.3.2-.5.2L58.7 44.3z"/><path fill="#f15c66" d="M76.8 43.4c-.3.2-.6.4-1 .5-.4.1-.8.3-1.2.4-.4.1-.9.2-1.3.2-.4.1-.9.1-1.3.1-2.3.0-4.1-.6-5.4-1.9-1.4-1.3-2-3-2-5.3.0-1.9.6-3.6 1.8-4.8 1.2-1.3 2.8-1.9 4.6-1.9s3.4.6 4.5 1.9c1.1 1.2 1.7 2.9 1.7 4.9v1c0 .2-.1.4-.2.5-.1.1-.3.2-.5.2h-6.6c.1.2.2.4.4.6.5.5 1.3.7 2.4.7.5.0 1.1-.1 1.6-.2.3-.1.5-.1.6-.2.1.0.2-.1.3-.1.2-.1.4-.1.5.0.2.1.3.2.4.4l.9 2.2L76.8 43.4zM69.7 36.1h2.4c-.1-.5-.2-1-.4-1.3s-.5-.5-.8-.5c-.4.0-.7.2-.9.6C69.9 35.4 69.8 35.8 69.7 36.1z"/><path fill="#f15c66" d="M88 43.5c-1 .7-2.3 1.1-4.1 1.1-.9.0-1.8-.1-2.7-.2-.8-.1-1.5-.3-2.3-.5-.1.0-.2-.1-.3-.2-.1-.1-.1-.2-.2-.3l-.3-2.8c0-.3.0-.5.2-.6.2-.2.4-.2.7.0.1.1.4.2.6.3.3.1.7.3 1.1.4.8.3 1.8.5 2.7.5.2.0.5.0.7-.1.2-.1.3-.1.3-.3.0-.2-.2-.4-.6-.6-.4-.2-1-.4-1.7-.6v0c-.6-.2-1.3-.6-2.3-1.2-1-.7-1.6-1.7-1.6-3.2.0-.7.1-1.4.4-1.9.3-.6.7-1 1.3-1.4.5-.4 1.1-.6 1.7-.8.7-.2 1.4-.3 2.2-.3.4.0.8.0 1.1.1.4.1.7.1 1.1.2.3.1.6.2 1 .3.3.1.5.2.8.3.1.0.2.1.3.3.1.1.1.3.1.4v2.7c0 .3-.1.5-.3.6-.2.1-.5.1-.7-.1-.1.0-.2-.1-.4-.2-.2-.1-.5-.3-.8-.4-.7-.3-1.3-.5-1.9-.5-.2.0-.4.0-.6.1-.1.1-.2.2-.2.3.0.2.2.4.6.6.4.2 1.1.5 2 .8 1.1.4 2 1 2.6 1.6.6.7.9 1.5.9 2.5C89.5 41.7 89 42.7 88 43.5z"/><path fill="#fff" d="M51 13.2v-7h4.8v1.4h-3.1v1.5h2.6v1.3h-2.6v2.8H51z"/><path fill="#fff" d="M56.6 13.2v-7h3.2c.3.0.6.1.9.2C61 6.6 61.2 6.7 61.4 7c.2.2.4.5.5.8C62 8 62.1 8.3 62.1 8.6c0 .4-.1.8-.3 1.2-.2.4-.5.6-.8.8l1.5 2.6h-1.8L59.3 11h-1.1v2.3L56.6 13.2zM58.2 9.6h1.5c.2.0.4-.1.5-.3.1-.2.2-.4.2-.7.0-.3-.1-.5-.2-.7-.2-.2-.3-.3-.5-.3h-1.4L58.2 9.6z"/><path fill="#fff" d="M68.2 11.8v1.4h-4.9v-7h4.8v1.4h-3.2V9h2.8v1.3h-2.8v1.5H68.2z"/><path fill="#fff" d="M74.1 11.8v1.4h-4.9v-7H74v1.4h-3.2V9h2.8v1.3h-2.8v1.5H74.1z"/></g></svg>