<svg xmlns="http://www.w3.org/2000/svg" width="251" height="135" viewBox="0 0 251 135">
    <defs>
        <linearGradient id="a" x1="11.269%" x2="92.474%" y1="-6.398%" y2="100%">
            <stop offset="0%" stop-color="#21C8F6" stop-opacity="0"/>
            <stop offset="100%" stop-color="#637BFF"/>
        </linearGradient>
        <linearGradient id="b" x1="50%" x2="50%" y1="0%" y2="97.483%">
            <stop offset="0%" stop-color="#21C8F6"/>
            <stop offset="100%" stop-color="#637BFF"/>
        </linearGradient>
        <linearGradient id="c" x1="-24.308%" y1="-161.748%" y2="17.569%">
            <stop offset="0%" stop-color="#5B79A2"/>
            <stop offset="100%" stop-color="#2E4469"/>
        </linearGradient>
    </defs>
    <g fill="none" fill-rule="evenodd">
        <path stroke="url(#a)" stroke-linejoin="round" stroke-width="8.1" d="M.033.4L94.718 60.85 53.37 131.37l172.428-17.633" transform="translate(-24 -10)"/>
        <g transform="translate(18.172 105.223)">
            <ellipse cx="13.199" cy="13.135" fill="url(#b)" rx="13.199" ry="13.135"/>
            <path fill="#FFF" fill-opacity=".2" d="M5.027 22.517C1.975 20.235 0 16.602 0 12.51 0 5.601 5.628 0 12.57 0c4.112 0 7.763 1.965 10.056 5.003a12.554 12.554 0 0 0-7.542-2.501c-6.942 0-12.57 5.6-12.57 12.51 0 2.815.935 5.414 2.513 7.505z"/>
        </g>
        <g transform="translate(54.667 37.874)">
            <ellipse cx="13.199" cy="13.135" fill="url(#b)" rx="13.199" ry="13.135"/>
            <path fill="#FFF" fill-opacity=".2" d="M5.027 22.517C1.975 20.235 0 16.602 0 12.51 0 5.601 5.628 0 12.57 0c4.112 0 7.763 1.965 10.056 5.003a12.554 12.554 0 0 0-7.542-2.501c-6.942 0-12.57 5.6-12.57 12.51 0 2.815.935 5.414 2.513 7.505z"/>
        </g>
        <g transform="rotate(-15 447.107 -666.895)">
            <rect width="9" height="20" x="4.615" y="4.865" fill="url(#b)" rx="3" transform="scale(-1 1) rotate(-32 0 46.654)"/>
            <g transform="rotate(31 8.331 35.966)">
                <rect width="45" height="34" fill="url(#c)" stroke="url(#b)" stroke-width="3" rx="4"/>
                <path fill="url(#b)" d="M28.739 7.933v3.182l-12.705 5.302 12.705 5.335v3.181l-16.364-6.926v-3.18z"/>
            </g>
        </g>
    </g>
</svg>
