<svg xmlns="http://www.w3.org/2000/svg" xmlns:xlink="http://www.w3.org/1999/xlink" width="135" height="125" viewBox="0 0 135 125">
    <defs>
        <linearGradient id="a" x1="63.86%" x2="23.789%" y1="-36.397%" y2="100%">
            <stop offset="0%" stop-color="#76E1FF"/>
            <stop offset="100%" stop-color="#637BFF" stop-opacity="0"/>
        </linearGradient>
        <linearGradient id="d" x1="50%" x2="50%" y1="0%" y2="97.483%">
            <stop offset="0%" stop-color="#21C8F6"/>
            <stop offset="100%" stop-color="#637BFF"/>
        </linearGradient>
        <ellipse id="c" cx="11.245" cy="11.094" rx="11.245" ry="11.094"/>
        <filter id="b" width="193.4%" height="194.6%" x="-46.7%" y="-33.8%" filterUnits="objectBoundingBox">
            <feOffset dy="3" in="SourceAlpha" result="shadowOffsetOuter1"/>
            <feGaussianBlur in="shadowOffsetOuter1" result="shadowBlurOuter1" stdDeviation="3"/>
            <feColorMatrix in="shadowBlurOuter1" values="0 0 0 0 0.666666667 0 0 0 0 0.639215686 0 0 0 0 0.639215686 0 0 0 0.3 0"/>
        </filter>
        <linearGradient id="e" x1="-24.308%" y1="-161.748%" y2="17.569%">
            <stop offset="0%" stop-color="#5B79A2"/>
            <stop offset="100%" stop-color="#2E4469"/>
        </linearGradient>
    </defs>
    <g fill="none" fill-rule="evenodd">
        <path stroke="url(#a)" stroke-width="5.6" d="M96.92 55.096L52.972 9.63.476 126.897" transform="matrix(-1 0 0 1 135.794 3)"/>
        <g transform="translate(70.526 3)">
            <use fill="#000" filter="url(#b)" xlink:href="#c"/>
            <use fill="url(#d)" xlink:href="#c"/>
        </g>
        <path fill="#FFF" fill-opacity=".2" d="M74.968 22.723c-2.697-1.999-4.442-5.181-4.442-8.766C70.526 7.906 75.498 3 81.632 3a11.14 11.14 0 0 1 8.885 4.382 11.155 11.155 0 0 0-6.664-2.19c-6.133 0-11.106 4.905-11.106 10.956 0 2.467.827 4.744 2.221 6.575z"/>
        <g transform="rotate(30 -79.254 55.033)">
            <rect width="46.591" height="34.745" fill="url(#e)" stroke="url(#d)" stroke-width="3" rx="5.6"/>
            <path fill="url(#d)" d="M32.789 9.545v3.222l-13.035 5.37 13.035 5.402v3.221L16 19.747v-3.222z" transform="rotate(-179 24.394 18.153)"/>
        </g>
    </g>
</svg>
