<svg id="ICON" xmlns="http://www.w3.org/2000/svg" viewBox="0 0 168 128"><title>webhosting</title><path id="webhosting" d="M168,95V75a5,5,0,0,0-5-5H77a5,5,0,0,0-5,5V95a5,5,0,0,0,2,4,5,5,0,0,0-2,4v20a5,5,0,0,0,5,5h86a5,5,0,0,0,5-5V103a5,5,0,0,0-2-4A5,5,0,0,0,168,95Zm-2,8v20a3,3,0,0,1-3,3H77a3,3,0,0,1-3-3V103a3,3,0,0,1,3-3h86A3,3,0,0,1,166,103Zm0-8a3,3,0,0,1-3,3H77a3,3,0,0,1-3-3V75a3,3,0,0,1,3-3h86a3,3,0,0,1,3,3ZM91,80a5,5,0,1,0,5,5A5,5,0,0,0,91,80Zm0,8a3,3,0,1,1,3-3A3,3,0,0,1,91,88Zm27-11V93a1,1,0,0,1-2,0V77a1,1,0,0,1,2,0Zm12,0V93a1,1,0,0,1-2,0V77a1,1,0,0,1,2,0Zm12,0V93a1,1,0,0,1-2,0V77a1,1,0,0,1,2,0Zm12,0V93a1,1,0,0,1-2,0V77a1,1,0,0,1,2,0ZM91,118a5,5,0,1,0-5-5A5,5,0,0,0,91,118Zm0-8a3,3,0,1,1-3,3A3,3,0,0,1,91,110Zm25,11V105a1,1,0,0,1,2,0v16a1,1,0,0,1-2,0Zm12,0V105a1,1,0,0,1,2,0v16a1,1,0,0,1-2,0Zm12,0V105a1,1,0,0,1,2,0v16a1,1,0,0,1-2,0Zm12,0V105a1,1,0,0,1,2,0v16a1,1,0,0,1-2,0ZM52,123a4.92,4.92,0,0,1-1,3H63a1,1,0,0,1,0,2H31a1,1,0,0,1,0-2H47a3,3,0,0,0,3-3V108H5a5,5,0,0,1-5-5V5A5,5,0,0,1,5,0H139a5,5,0,0,1,5,5V61a1,1,0,0,1-2,0V5a3,3,0,0,0-3-3H5A3,3,0,0,0,2,5v98a3,3,0,0,0,3,3H63a1,1,0,0,1,0,2H52Z" style="fill:#001b41"/></svg>